<?xml version="1.0" encoding="UTF-8"?>
<svg id="Camada_1" xmlns="http://www.w3.org/2000/svg" viewBox="0 0 1973.06 614.8">
  <defs>
    <style>
      .cls-1 {
        fill: #bc2828;
      }

      .cls-2 {
        fill: #fff;
      }
    </style>
  </defs>
  <path class="cls-1" d="M312.12,613.6l-9.19-117.83c18.27-1.43,36.04-6.15,52.83-14.05,14.74-6.93,28.13-16.05,39.82-27.1l81.21,85.86c-20.81,19.69-44.61,35.9-70.72,48.18-29.76,14-61.37,22.39-93.94,24.93ZM162.75,581.96c-51.19-27.58-91.35-70.04-116.16-122.77-1.65-3.52-3.26-7.12-4.76-10.72l108.99-45.7c.86,2.05,1.77,4.1,2.72,6.11,13.96,29.68,36.53,53.55,65.28,69.04l-56.06,104.04ZM553.49,408.46l-114.78-28.17c2.91-11.88,4.39-24.08,4.39-36.25,0-22.37-4.88-44.09-14.51-64.55-.41-.88-.85-1.78-1.29-2.67l105.94-52.39c.77,1.57,1.53,3.14,2.28,4.73,17.1,36.35,25.76,74.99,25.76,114.89,0,21.65-2.62,43.33-7.8,64.41ZM141.42,317.48l-116.32-20.91c10.92-60.75,42.52-116.36,88.99-156.6l77.36,89.35c-26.11,22.61-43.88,53.92-50.03,88.16ZM369.08,213.72c-23.67-14.12-50.7-21.58-78.16-21.58-7.08,0-14.22.51-21.23,1.5l-16.66-117c12.5-1.78,25.25-2.68,37.89-2.68,48.76,0,96.72,13.23,138.69,38.25l-60.53,101.51Z"/>
  <g>
    <path class="cls-2" d="M742.71,227.09h167.1l-.95,306.21h-100.17l.44-48.12h-97.11l-24.06,48.12h-100.17l154.93-306.21ZM749.1,409.94h60.8l1.13-104.11h-10.06l-51.87,104.11Z"/>
    <path class="cls-2" d="M1015.24,227.09h100.61l-57.9,227.47h121.17l-20.04,78.74h-221.78l77.94-306.21Z"/>
    <path class="cls-2" d="M1269.82,227.09h100.61l-57.9,227.47h121.17l-20.04,78.74h-221.78l77.94-306.21Z"/>
  </g>
  <g>
    <path class="cls-2" d="M1513.74,227.08h100.61v306.21h-100.61V227.08Z"/>
    <path class="cls-2" d="M1658.1,227.08h104.99l112.86,165.79h3.06v-165.79h94.05v306.21h-104.99l-112.42-165.35h-3.5v165.35h-94.05V227.08Z"/>
  </g>
  <polygon class="cls-1" points="1562.72 0 1493.45 92.87 1562.72 196.15 1632.41 90.81 1562.72 0"/>
</svg>