<?xml version="1.0" encoding="UTF-8"?>
<svg id="Camada_1" xmlns="http://www.w3.org/2000/svg" xmlns:xlink="http://www.w3.org/1999/xlink" viewBox="0 0 6796.88 824.86">
  <defs>
    <style>
      .cls-1 {
        fill: #fff;
      }

      .cls-2 {
        fill: #fac61a;
      }

      .cls-3 {
        fill: #fcb11a;
      }

      .cls-4 {
        fill: url(#Gradiente_sem_nome_69);
      }
    </style>
    <linearGradient id="Gradiente_sem_nome_69" data-name="Gradiente sem nome 69" x1="534.43" y1="808.56" x2="534.43" y2="8.31" gradientUnits="userSpaceOnUse">
      <stop offset=".05" stop-color="#043877"/>
      <stop offset="1" stop-color="#013bbf"/>
    </linearGradient>
  </defs>
  <g>
    <path class="cls-3" d="M4301.36,423.46c11.9-7.71,21.96-16.68,30.17-26.95,16.67-20.84,25.02-46.23,25.02-76.16,0-43.16-15.82-77.63-47.46-103.38-31.64-25.75-79.84-38.63-144.59-38.63h-239.87v515.07h254.59c67.69,0,118.21-13.36,151.58-40.1,33.35-26.73,50.03-63.89,50.03-111.47,0-32.86-10.55-60.95-31.64-84.25-12.67-13.99-28.63-25.35-47.83-34.12ZM4207.92,295.33c12.75,9.32,19.13,21.59,19.13,36.79,0,16.68-6.51,30.17-19.5,40.47-13,10.3-31.53,15.45-55.55,15.45h-93.45v-106.69h89.77c26.97,0,46.84,4.67,59.6,13.98ZM4225.57,574.94c-14.23,10.3-36.79,15.45-67.69,15.45h-99.34v-117.73h99.34c20.11,0,36.9,2.94,50.4,8.83,13.48,5.89,23.29,13.5,29.43,22.81,6.13,9.33,9.2,18.89,9.2,28.7,0,17.66-7.12,31.64-21.34,41.94Z"/>
    <path class="cls-3" d="M4800.24,521.96c34.83-16.19,61.31-38.5,79.47-66.96,18.14-28.44,27.23-60.08,27.23-94.92,0-55.43-19.26-99.58-57.76-132.45-38.52-32.86-95.54-49.3-171.07-49.3h-183.29c-30.44,0-55.11,24.67-55.11,55.11v459.96h133.92v-147.16h39.67l129.57,147.16h167.03l-145.64-158.26c12.69-3.55,24.7-7.93,36.01-13.19ZM4748.37,318.14c16.43,12.76,24.65,30.66,24.65,53.71,0,14.23-3.56,26.86-10.67,37.9-7.12,11.04-18.15,20.12-33.11,27.22-14.97,7.12-33.73,10.67-56.29,10.67h-99.34v-148.63h99.34c33.85,0,58.98,6.38,75.42,19.13Z"/>
    <path class="cls-3" d="M5145.34,178.34l-225.16,515.07h150.1l48.64-114.05h259.6l48.64,114.05h150.1l-225.16-515.07h-206.77ZM5162.85,476.34l75.94-178.07h19.87l75.94,178.07h-171.74Z"/>
    <path class="cls-3" d="M5958.41,435.5c-30.42-25.26-77.02-43.78-139.8-55.55-26.01-4.41-45.99-9.31-59.97-14.72-13.98-5.39-23.55-11.15-28.7-17.29-5.15-6.13-7.73-13.61-7.73-22.44,0-8.34,2.58-15.82,7.73-22.44,5.15-6.62,13.61-12.14,25.39-16.56,11.77-4.41,26.24-6.62,43.41-6.62,31.38,0,62.66,5.04,93.81,15.08,31.15,10.06,56.29,22.2,75.42,36.42h5.15v-118.46c-19.63-11.77-45.01-21.71-76.16-29.8-31.16-8.09-65.37-12.14-102.65-12.14-41.7,0-78.12,6.75-109.27,20.24-31.16,13.5-55.07,32.01-71.74,55.55-16.68,23.55-25.02,49.79-25.02,78.73,0,42.19,14.83,75.67,44.52,100.44,29.67,24.78,75.66,42.8,137.96,54.08,25.99,4.91,46.35,10.06,61.07,15.45,14.72,5.4,24.77,11.53,30.17,18.4,5.39,6.88,8.09,15.21,8.09,25.02s-2.94,18.03-8.83,26.12c-5.89,8.09-15.45,14.6-28.7,19.5-13.25,4.91-29.43,7.36-48.56,7.36-29.43,0-60.96-5.15-94.55-15.45-33.61-10.3-62.18-24.03-85.72-41.2h-5.89v118.46c23.55,13.74,52.73,25.02,87.56,33.85,34.83,8.83,70.14,13.25,105.96,13.25,45.12,0,83.63-6.99,115.52-20.97,31.88-13.98,56.04-33.23,72.48-57.76,16.43-24.52,24.65-52.24,24.65-83.15,0-43.66-15.21-78.11-45.62-103.38Z"/>
    <rect class="cls-3" x="6057" y="178.34" width="133.92" height="515.07"/>
    <polygon class="cls-3" points="6405.78 564.64 6405.78 178.34 6267.44 178.34 6267.44 693.4 6662.57 693.4 6662.57 564.64 6405.78 564.64"/>
  </g>
  <g>
    <path class="cls-1" d="M1518.05,193.06c-33.61-15.69-73.47-23.55-119.57-23.55h-243.55v515.07h133.92v-142.75h111.84c68.17,0,121.89-16.3,161.14-48.93,39.24-32.62,58.86-78.61,58.86-137.96,0-35.8-8.72-67.81-26.12-96.02-17.42-28.2-42.93-50.15-76.52-65.85ZM1463.97,411.59c-15.7,12.76-38.26,19.13-67.69,19.13h-107.43v-140.54h107.43c19.13,0,35.43,3.07,48.93,9.2,13.49,6.14,23.91,14.35,31.27,24.65,7.36,10.3,11.04,22.07,11.04,35.32,0,22.07-7.85,39.49-23.55,52.24Z"/>
    <path class="cls-1" d="M2811.96,169.51h-172.18l-215.59,220.76v-220.76h-78.81c-30.44,0-55.11,24.67-55.11,55.11v459.96h133.92v-208.23h21.93l196.6,208.23h178.8l-252.93-263.87,243.37-251.2Z"/>
    <polygon class="cls-1" points="3006.2 473.4 3266.68 473.4 3266.68 378.48 3006.2 378.48 3006.2 280.62 3273.3 280.62 3273.3 169.51 2872.28 169.51 2872.28 684.58 3278.45 684.58 3278.45 573.47 3006.2 573.47 3006.2 473.4"/>
    <path class="cls-1" d="M3655.18,684.58h167.03l-145.64-158.26c12.69-3.55,24.7-7.93,36.01-13.19,34.83-16.19,61.31-38.5,79.47-66.96,18.14-28.44,27.23-60.08,27.23-94.92,0-55.43-19.26-99.58-57.76-132.45-38.52-32.86-95.54-49.3-171.07-49.3h-238.4v515.07h133.92v-147.16h39.67l129.57,147.16ZM3660.7,309.32c16.43,12.76,24.65,30.66,24.65,53.71,0,14.23-3.56,26.86-10.67,37.9-7.12,11.04-18.15,20.12-33.11,27.22-14.97,7.12-33.73,10.67-56.29,10.67h-99.34v-148.63h99.34c33.85,0,58.98,6.38,75.42,19.13Z"/>
    <path class="cls-1" d="M2178.33,289.38l-64.64,38.01c-17.36-29.52-42.17-54.23-71.76-71.48l36.3-62.28c-41.07-22.42-86.67-33.67-136.83-33.72l.11,69.08c-35.36.06-70.05,9.48-100.31,27.26l-36.79-62.65c-.97.53-1.95,1.04-2.91,1.58-41.09,23.2-73.45,54.77-97.13,94.66l65.32,38.12c-17.65,30.24-26.98,64.88-26.98,100.18v.31h-74.92c.4,48.01,12.24,92.01,35.6,131.97,1.06,1.82,2.16,3.6,3.26,5.39l63.25-37.1c17.32,29.54,42.11,54.28,71.67,71.55l-34.69,59.36c40.25,21.54,84.99,32.34,134.23,32.34.3,0,.59-.01.89-.01l-.04-64.66c35.37-.02,70.07-9.41,100.35-27.14l34.49,58.87c1.44-.77,2.88-1.53,4.31-2.33,40.21-22.58,72.04-53.07,95.56-91.46l-62.76-36.72c17.72-30.29,27.09-65,27.09-100.37v-.62h74.2c0-.53.02-1.05.02-1.58,0-48.98-11.88-93.81-35.64-134.48-.41-.7-.85-1.38-1.26-2.08ZM2063.84,495.75c-12.25,21.07-29.28,37.85-51.07,50.34-21.8,12.49-45.45,18.74-70.92,18.74s-49.12-6.25-70.91-18.74c-21.81-12.49-38.83-29.27-51.07-50.34-12.25-21.06-18.37-44.33-18.37-69.81s6.12-48.13,18.37-69.45c12.24-21.31,29.14-38.21,50.71-50.71,21.55-12.49,45.31-18.74,71.28-18.74s49.11,6.25,70.92,18.74c21.79,12.49,38.82,29.28,51.07,50.34,12.24,21.07,18.37,44.34,18.37,69.81s-6.13,48.75-18.37,69.81Z"/>
  </g>
  <g>
    <path class="cls-4" d="M934.56,408.44c-.61,77.59-1.08,151.51-8.56,209.81-7.48,58.84-21.98,102.06-50.97,130.78-28.73,28.99-71.95,43.49-130.8,50.98-58.3,7.48-132.22,7.94-209.81,8.56-77.59-.61-151.51-1.08-209.81-8.56-58.84-7.49-102.06-21.98-130.78-50.97-28.99-28.73-43.49-71.95-50.98-130.8-7.48-58.3-7.94-132.22-8.56-209.81.61-77.59,1.08-151.51,8.56-209.81,7.49-58.84,21.97-102.06,50.97-130.78,28.73-28.99,71.95-43.49,130.8-50.98,58.3-7.48,132.22-7.94,209.81-8.56,77.59.61,151.51,1.08,209.81,8.56,58.84,7.49,102.06,21.98,130.78,50.97,28.99,28.73,43.49,71.95,50.98,130.8,7.47,58.3,7.94,132.22,8.56,209.81Z"/>
    <g>
      <path class="cls-2" d="M650.75,214.3c-6.82,7.76-22.31,11.76-32.63,12.37l-17.68-23.25c.46-.5.9-1.01,1.32-1.54,4.83-6.21,7.57-16.25,5.33-25.09-2.4-9.51-15.49-22.65-22.2-28.59-14.89-13.21-23.86-11.26-31.58-6.22l-8.42-7.93c-6.02-7.62-17.6-7.55-23.54.12l-25.05,32.38c-4.33-9.77-14.17-16.59-25.33-16.59-.56,0-1.13.02-1.71.06-7.39.45-14.14,3.75-19.04,9.29-4.9,5.54-7.34,12.65-6.89,20.03.1,1.55.33,3.1.68,4.62-1.2.94-2.32,1.99-3.35,3.15-4.38,4.95-6.57,11.33-6.17,17.93.61,9.77,6.85,17.96,15.43,21.44l-17.58,22.72c-1.23.16-2.45.25-3.69.25-9.51,0-21.76-2.52-28.31-8.12,5.66-10.52,6.01-23.53.89-34.18-1.51-3.13-3.43-5.98-5.7-8.52l115.27-148.96c11.05-14.29,32.57-14.4,43.78-.23l90.55,114.53c-3.52,4.77-5.93,10.39-6.85,16.53-1.88,12.57,2.88,25.42,12.46,33.79Z"/>
      <path class="cls-2" d="M315.35,418.98l35.18,44.5c-2.29-.57-4.64-.87-7.01-.88h-.14c-12.07,0-23.21,5.53-30.52,15.11-5.12,6.2-7.93,14.14-7.91,22.32-.02.34-.03.69-.03,1.05,0,.53.01,1.06.03,1.59l-59.6-75.39c-7.93-10.02-7.99-24.14-.18-34.24l117.81-152.26,5.14,10.67,20.72,54.03-73.57,95.09c-4.2,5.43-4.16,13.02.1,18.41Z"/>
      <path class="cls-2" d="M677.81,612.41l-119.75,154.78c-11.05,14.29-32.58,14.4-43.78.23l-180.35-228.09c3.42,1.31,7.2,2.4,11.36,3.3,1.57.33,3.25.65,4.73.88,11.79,2.92,25.65,4.39,41.21,4.39,7.97,0,16.33-.37,25.17-1.12l107.56,136.04c6.02,7.62,17.6,7.55,23.54-.12l68.73-88.84,4.59,1.64,5.33,2.03,1.1.3.24.07c3.26,1.13,6.6,2.27,9.97,3.36l-.07.15,8.4,2.48,4.47,1.4.99.23.23.05c3.81,1.1,7.65,2.17,11.45,3.18l-.1.22,10.25,2.37,3.02.75,1.03.19c.23.06.45.1.66.14Z"/>
      <path class="cls-2" d="M823.72,423.84l-112.59,145.5c-.41-9-2.38-19.69-6.69-32.33l-.09-.25c-.07-.17-6.15-16.91-8.24-34.88l.09-.24c.95-2.5,1.92-5.09,1.65-8.32-.02-.22-.03-.44-.03-.67v-.16c-.04-.94-.09-2.18-.33-3.6l56.14-72.57c4.2-5.43,4.16-13.02-.1-18.41l-81.77-103.41,1.73-12.37.19-.02,9.73-69.73,140.14,177.24c7.93,10.02,8,24.14.19,34.24Z"/>
    </g>
    <g>
      <path class="cls-1" d="M381.5,245.89l-11.41-23.72-10-20.6c2.31-.77,4.72-1.15,7.18-1.15,8.89,0,17.09,5.12,20.9,13.04,4.1,8.51,2.46,18.91-4.09,25.87l-1.35,1.44.78,1.81c6.83,15.78,28.58,21.38,45.13,21.38,24.09,0,46.02-20.44,46.02-42.88,0-.96-.33-8.21-.5-11.88l-.04-.77-.85-10.27-4.8,9.87c-1.63,3.34-4.93,5.55-8.62,5.78-.22.01-.43.02-.64.02-5.42,0-9.92-4.24-10.26-9.66-.17-2.74.74-5.39,2.56-7.45,1.82-2.06,4.33-3.28,7.08-3.45.2-.01.4-.02.61-.02.47,0,.93.03,1.39.09l6.54-.92-4.3-4.41c-2.97-2.33-4.81-5.81-5.04-9.55-.22-3.51.95-6.89,3.29-9.53,2.34-2.64,5.55-4.22,9.06-4.43.27-.02.55-.03.82-.03,6.95,0,12.72,5.44,13.14,12.38.15,2.4-.38,4.81-1.52,6.96l-3.52,6.63,7.12-2.38c.89-.3,1.77-.47,2.64-.53.22-.01.43-.02.64-.02,5.42,0,9.93,4.24,10.26,9.66.35,5.66-3.98,10.55-9.64,10.9-.21.01-.43.02-.64.02-2.8,0-5.51-1.17-7.45-3.21l-7.35-7.74,2.25,10.44c7.29,33.84,27.98,38.41,47.25,38.41,10.32,0,20.74-4.57,28.58-12.53,9.38-9.52,14.42-23.01,14.19-37.98l-.1-6.69-4.93,4.52c-2.23,2.05-5.12,3.18-8.13,3.18-4.22,0-8.06-2.16-10.27-5.79l-.15-.23c-1.42-1.72-1.91-4.07-1.57-7.12l.11-.87c.21-1.15.53-2.16.99-3.14,2.48-5.66,8.38-12.05,14.08-18.22,3.53-3.83,6.89-7.47,9.52-10.96,3.29,4.26,7.57,8.46,11.72,12.52,5.96,5.84,12.12,11.88,14.24,17.19.19.46.33.91.46,1.37l.11.33.12.65c.41,2.05.35,3.83-.18,5.28-1.5,5.32-6.28,8.99-11.64,8.99-3.12,0-6.09-1.2-8.35-3.38l-5.88-5.67.82,8.13c3.1,30.7,26.1,45.21,46.15,45.7.42.01.85.02,1.29.02,18.25,0,48.76-8.33,52.89-30.7l.44-2.36-2.21-.94c-9.69-4.14-15.39-14.27-13.85-24.62,1.67-11.21,11.5-19.67,22.86-19.67.12,0,.25,0,.38,0l-3.38,22.63-4.05,27.66-7.75,56.84-.37,1.39-1.74,12.4c-1.48,0-2.96-.01-4.43-.01-81.74,0-161.33,12.64-243.28,38.64l-29.36-76.64Z"/>
      <path class="cls-1" d="M428.35,527.09c40.12-28.87,53.7-81.62,57.73-103.48,3.49-18.91,6.33-35.96,5.8-53.17-.05-1.61-.1-3.27-.14-4.96-.37-13.98-.79-29.77-4.97-42.91,11.16-2.29,45.1-8.76,55.28-10.02.42,11.06,1.18,56.05-11.46,102.01-17.51,63.67-51.89,101.51-102.25,112.53Z"/>
      <path class="cls-1" d="M366.43,530.39c-6.06,0-12.14-.65-18.09-1.92-6.76-1.45-12.05-3.47-16.17-6.17-7.91-4.3-12.78-12.42-12.78-21.22l.03-.55c-.06-5.19,1.6-10.02,4.69-13.69,4.66-6.2,11.67-9.73,19.26-9.73,7.02.04,13.38,4.74,15.47,11.44.75,2.39.96,4.55.64,6.45-.49,2.87-2.38,5.34-5.62,7.34-2.32,1.43-3.28,4.31-2.23,6.69.84,1.91,2.73,3.15,4.82,3.15.96,0,1.9-.26,2.72-.76,6.07-3.68,9.66-8.62,10.68-14.69.51-3.04.33-6.3-.53-9.7,12.31-10.49,40.4-44.78,47.57-142.31,10.12-5.29,26.7-10.96,48.06-16.41,3.75,9.62,5.84,23.59,6.55,33.64,2.25,31.7-3.59,57.53-13.75,88.93-3.45,10.67-7.51,20.72-12.07,29.87-15.02,30.16-46.13,49.66-79.26,49.66Z"/>
      <path class="cls-1" d="M639.24,487.64c-6.73,0-13.55-2.48-18.71-6.8-5.61-4.69-9.44-12.75-5.9-19.08l.23-.4c2.14-3.51,5.56-5.7,8.92-5.7,4.24,0,8.09,2.5,9.82,6.37.78,1.74.92,4.24-1.26,5.55-.18.11-.37.21-.55.31-.45.24-.85.46-1.24.72-1.12.74-1.92,1.64-2.39,2.69-.92,2.06-.69,4.57.63,7.06,1.11,2.1,2.85,3.83,4.64,4.62,1.01.45,2.11.68,3.27.68,1.7,0,3.51-.51,5.1-1.44,2.19-1.27,3.78-3.04,5.22-4.77,6.85-1.18,15.5-8.31,18.81-14.07,1.17-2.04,1.78-3.93,2.32-5.59.84-2.59,1.4-4.3,3.69-5.88,1.48-1.02,3.17-1.56,4.89-1.56,2.43,0,4.68,1.06,6.33,3,2.58,3.02,3.6,6.29,3.03,9.73-1.11,6.72-7.84,12.86-13.27,16.08-7.83,4.64-16.96,7.46-26.37,8.16-1.9.14-4.4.3-6.92.33h-.29Z"/>
      <path class="cls-1" d="M686.74,599.54c-.73-.15-1.79-.38-3.14-.67,3.53-8.76,9.38-28.9-.52-49.23-1.12-2.31-3.52-3.81-6.09-3.81-1.03,0-2.02.23-2.96.68-1.63.79-2.85,2.17-3.44,3.88-.59,1.71-.48,3.54.31,5.17,8.23,16.9,2,34.15-.67,40.1-4.43-1.14-8.94-2.37-13.44-3.66,4.58-12.69,7.84-31.68-1.32-51.9-1.1-2.42-3.52-3.97-6.17-3.97-.97,0-1.91.2-2.8.61-1.64.74-2.9,2.09-3.54,3.78-.64,1.69-.58,3.53.17,5.18,7.33,16.17,4.48,31.8.6,42.35-3.97-1.27-7.9-2.59-11.72-3.93,4.69-15.38,3.6-31.3-3.34-48.63-1.03-2.58-3.5-4.25-6.28-4.25-.86,0-1.71.16-2.52.49-3.46,1.39-5.15,5.33-3.76,8.8,5.67,14.15,6.73,26.89,3.22,38.9-37.55-14.62-64.02-31.66-78.67-50.66-13.77-17.85-16.59-37.38-8.38-58.04,15.28-38.46,32.96-97.29,30.4-159.12,0,0-.06-1.52-.08-2.03,7.44-2.53,46.02-7.54,72.96-7.54,7.41,0,12.91.39,16.34,1.17,16.43,3.72,15.18,42.43,15.12,44.07-.27,1.87-2.55,19.49,5.11,28.45,6.87,8.04,10.4,14.21,10.43,14.27,12.12,24.87,17.59,44.17,15.88,45.99-1.37.73-3.02,1.11-4.87,1.11-4.91,0-9.59-2.67-9.64-2.69l-1.27-.74-1.36.55c-.62.25-1.27.53-1.94.82-2.92,1.25-6.18,2.65-8.95,2.65-.93,0-1.73-.16-2.44-.48-1.59-.72-2.82-2.13-2.99-3.43-.11-.8.24-1.51,1.06-2.18.59-.49,1.05-1.05,1.39-1.68,1.57-2.94,1.87-5.33.87-7.11-.34-.61-1.4-2.06-3.73-2.19h-.25c-3.13,0-7.09,3.04-9.44,7.23-2.66,4.75-2.64,9.81.07,14.23,3.68,6-1.98,13.74-3.83,15.28-.77.64-1.51,1.18-2.22,1.62-3.04-10.95-15.01-16.84-25.16-16.84-7.93,0-15.68,4.63-20.22,12.07-4.66,7.65-4.68,17.25-.06,25.68.12.23.27.45.42.68l.11.16c1.98,4.17,5.13,8.22,8.81,11.3,7.28,6.09,16.91,9.59,26.4,9.59h.41c2.88-.03,5.62-.21,7.68-.36,11.25-.82,22.18-4.21,31.61-9.8.69-.41,1.73-1.06,2.97-1.93.27.18.51.39.73.63.53.6.61,1.1.67,2.84.02.48.04.98.08,1.49-.05.12-.56,1.49-.75,2.01-.82,2.18-1.3,3.55-1.17,4.86,2.06,20.8,8.99,39.64,9.28,40.44,14.03,41.07-.15,54.87-4.02,57.73ZM621.78,375.76c-.29.77-.53,1.55-.71,2.33-1.13,4.93-.17,9.94,2.79,14.49,3.8,5.85,11.04,9.49,18.89,9.49.98,0,1.97-.06,2.94-.17l3.47-.4-.87-3.37-1.74-6.14c-1.79-6.33-2.82-12.83-3.05-19.36.06,0,13.79-.37,13.79-.37l-.75-3.53c-.19-.9-.36-1.74-.52-2.54-1.56-7.77-2.77-13.78-13.29-13.78-1.67,0-3.63.13-5.99.41-25.76,3.03-48.28,14.1-54.37,22.6-1.56,2.17-2.13,4.25-1.72,6.17l.62,2.92,2.93-.56,37.58-8.2ZM638.51,326.88c-.85,0-1.76.02-2.76.07-23.91,1.07-45.68,12.31-52.2,20.01-1.81,2.13-2.61,4.15-2.39,6.01l.48,4.02,3.7-1.63c.1-.04,9.67-4.21,21.73-6.43,11.87-2.19,26.22-3.36,32.01-3.36.49,0,.93,0,1.3.03l12.4.57-.41-3.51c-.09-.77-.27-2.42-.27-2.42-.83-7.75-1.43-13.34-13.6-13.34Z"/>
    </g>
    <g>
      <path class="cls-1" d="M381.5,245.89l-11.41-23.72-10-20.6c2.31-.77,4.72-1.15,7.18-1.15,8.89,0,17.09,5.12,20.9,13.04,4.1,8.51,2.46,18.91-4.09,25.87l-1.35,1.44.78,1.81c6.83,15.78,28.58,21.38,45.13,21.38,24.09,0,46.02-20.44,46.02-42.88,0-.96-.33-8.21-.5-11.88l-.04-.77-.85-10.27-4.8,9.87c-1.63,3.34-4.93,5.55-8.62,5.78-.22.01-.43.02-.64.02-5.42,0-9.92-4.24-10.26-9.66-.17-2.74.74-5.39,2.56-7.45,1.82-2.06,4.33-3.28,7.08-3.45.2-.01.4-.02.61-.02.47,0,.93.03,1.39.09l6.54-.92-4.3-4.41c-2.97-2.33-4.81-5.81-5.04-9.55-.22-3.51.95-6.89,3.29-9.53,2.34-2.64,5.55-4.22,9.06-4.43.27-.02.55-.03.82-.03,6.95,0,12.72,5.44,13.14,12.38.15,2.4-.38,4.81-1.52,6.96l-3.52,6.63,7.12-2.38c.89-.3,1.77-.47,2.64-.53.22-.01.43-.02.64-.02,5.42,0,9.93,4.24,10.26,9.66.35,5.66-3.98,10.55-9.64,10.9-.21.01-.43.02-.64.02-2.8,0-5.51-1.17-7.45-3.21l-7.35-7.74,2.25,10.44c7.29,33.84,27.98,38.41,47.25,38.41,10.32,0,20.74-4.57,28.58-12.53,9.38-9.52,14.42-23.01,14.19-37.98l-.1-6.69-4.93,4.52c-2.23,2.05-5.12,3.18-8.13,3.18-4.22,0-8.06-2.16-10.27-5.79l-.15-.23c-1.42-1.72-1.91-4.07-1.57-7.12l.11-.87c.21-1.15.53-2.16.99-3.14,2.48-5.66,8.38-12.05,14.08-18.22,3.53-3.83,6.89-7.47,9.52-10.96,3.29,4.26,7.57,8.46,11.72,12.52,5.96,5.84,12.12,11.88,14.24,17.19.19.46.33.91.46,1.37l.11.33.12.65c.41,2.05.35,3.83-.18,5.28-1.5,5.32-6.28,8.99-11.64,8.99-3.12,0-6.09-1.2-8.35-3.38l-5.88-5.67.82,8.13c3.1,30.7,26.1,45.21,46.15,45.7.42.01.85.02,1.29.02,18.25,0,46.43-11.35,50.57-33.71l.55-.29c-9.69-4.14-15.39-14.27-13.85-24.62,1.67-11.21,11.5-19.67,22.86-19.67.12,0,.25,0,.38,0l-3.38,22.63-4.05,27.66-7.75,56.84-.37,1.39-1.74,12.4c-1.48,0-2.96-.01-4.43-.01-81.74,0-161.33,12.64-243.28,38.64l-29.36-76.64Z"/>
      <path class="cls-1" d="M428.35,527.09c40.12-28.87,53.7-81.62,57.73-103.48,3.49-18.91,6.33-35.96,5.8-53.17-.05-1.61-.1-3.27-.14-4.96-.37-13.98-.79-29.77-4.97-42.91,11.16-2.29,45.1-8.76,55.28-10.02.42,11.06,1.18,56.05-11.46,102.01-17.51,63.67-51.89,101.51-102.25,112.53Z"/>
      <path class="cls-1" d="M366.43,530.39c-6.06,0-12.14-.65-18.09-1.92-6.76-1.45-12.05-3.47-16.17-6.17-7.91-4.3-12.78-12.42-12.78-21.22l.03-.55c-.06-5.19,1.6-10.02,4.69-13.69,4.66-6.2,11.67-9.73,19.26-9.73,7.02.04,13.38,4.74,15.47,11.44.75,2.39.96,4.55.64,6.45-.49,2.87-2.38,5.34-5.62,7.34-2.32,1.43-3.28,4.31-2.23,6.69.84,1.91,2.73,3.15,4.82,3.15.96,0,1.9-.26,2.72-.76,6.07-3.68,9.66-8.62,10.68-14.69.51-3.04.33-6.3-.53-9.7,12.31-10.49,40.4-44.78,47.57-142.31,10.12-5.29,26.7-10.96,48.06-16.41,3.75,9.62,5.84,23.59,6.55,33.64,2.25,31.7-3.59,57.53-13.75,88.93-3.45,10.67-7.51,20.72-12.07,29.87-15.02,30.16-46.13,49.66-79.26,49.66Z"/>
      <path class="cls-1" d="M639.24,487.64c-6.73,0-13.55-2.48-18.71-6.8-5.61-4.69-9.44-12.75-5.9-19.08l.23-.4c2.14-3.51,5.56-5.7,8.92-5.7,4.24,0,8.09,2.5,9.82,6.37.78,1.74.92,4.24-1.26,5.55-.18.11-.37.21-.55.31-.45.24-.85.46-1.24.72-1.12.74-1.92,1.64-2.39,2.69-.92,2.06-.69,4.57.63,7.06,1.11,2.1,2.85,3.83,4.64,4.62,1.01.45,2.11.68,3.27.68,1.7,0,3.51-.51,5.1-1.44,2.19-1.27,3.78-3.04,5.22-4.77,6.85-1.18,15.5-8.31,18.81-14.07,1.17-2.04,1.78-3.93,2.32-5.59.84-2.59,1.4-4.3,3.69-5.88,1.48-1.02,3.17-1.56,4.89-1.56,2.43,0,4.68,1.06,6.33,3,2.58,3.02,3.6,6.29,3.03,9.73-1.11,6.72-7.84,12.86-13.27,16.08-7.83,4.64-16.96,7.46-26.37,8.16-1.9.14-4.4.3-6.92.33h-.29Z"/>
      <path class="cls-1" d="M686.74,599.54c-.73-.15-1.79-.38-3.14-.67,3.53-8.76,9.38-28.9-.52-49.23-1.12-2.31-3.52-3.81-6.09-3.81-1.03,0-2.02.23-2.96.68-1.63.79-2.85,2.17-3.44,3.88-.59,1.71-.48,3.54.31,5.17,8.23,16.9,2,34.15-.67,40.1-4.43-1.14-8.94-2.37-13.44-3.66,4.58-12.69,7.84-31.68-1.32-51.9-1.1-2.42-3.52-3.97-6.17-3.97-.97,0-1.91.2-2.8.61-1.64.74-2.9,2.09-3.54,3.78-.64,1.69-.58,3.53.17,5.18,7.33,16.17,4.48,31.8.6,42.35-3.97-1.27-7.9-2.59-11.72-3.93,4.69-15.38,3.6-31.3-3.34-48.63-1.03-2.58-3.5-4.25-6.28-4.25-.86,0-1.71.16-2.52.49-3.46,1.39-5.15,5.33-3.76,8.8,5.67,14.15,6.73,26.89,3.22,38.9-37.55-14.62-64.02-31.66-78.67-50.66-13.77-17.85-16.59-37.38-8.38-58.04,15.28-38.46,32.96-97.29,30.4-159.12,0,0-.06-1.52-.08-2.03,7.44-2.53,46.02-7.54,72.96-7.54,7.41,0,12.91.39,16.34,1.17,16.43,3.72,15.18,42.43,15.12,44.07-.27,1.87-2.55,19.49,5.11,28.45,6.87,8.04,10.4,14.21,10.43,14.27,12.12,24.87,17.59,44.17,15.88,45.99-1.37.73-3.02,1.11-4.87,1.11-4.91,0-9.59-2.67-9.64-2.69l-1.27-.74-1.36.55c-.62.25-1.27.53-1.94.82-2.92,1.25-6.18,2.65-8.95,2.65-.93,0-1.73-.16-2.44-.48-1.59-.72-2.82-2.13-2.99-3.43-.11-.8.24-1.51,1.06-2.18.59-.49,1.05-1.05,1.39-1.68,1.57-2.94,1.87-5.33.87-7.11-.34-.61-1.4-2.06-3.73-2.19h-.25c-3.13,0-7.09,3.04-9.44,7.23-2.66,4.75-2.64,9.81.07,14.23,3.68,6-1.98,13.74-3.83,15.28-.77.64-1.51,1.18-2.22,1.62-3.04-10.95-15.01-16.84-25.16-16.84-7.93,0-15.68,4.63-20.22,12.07-4.66,7.65-4.68,17.25-.06,25.68.12.23.27.45.42.68l.11.16c1.98,4.17,5.13,8.22,8.81,11.3,7.28,6.09,16.91,9.59,26.4,9.59h.41c2.88-.03,5.62-.21,7.68-.36,11.25-.82,22.18-4.21,31.61-9.8.69-.41,1.73-1.06,2.97-1.93.27.18.51.39.73.63.53.6.61,1.1.67,2.84.02.48.04.98.08,1.49-.05.12-.56,1.49-.75,2.01-.82,2.18-1.3,3.55-1.17,4.86,2.06,20.8,8.99,39.64,9.28,40.44,14.03,41.07-.15,54.87-4.02,57.73ZM621.78,375.76c-.29.77-.53,1.55-.71,2.33-1.13,4.93-.17,9.94,2.79,14.49,3.8,5.85,11.04,9.49,18.89,9.49.98,0,1.97-.06,2.94-.17l3.47-.4-.87-3.37-1.74-6.14c-1.79-6.33-2.82-12.83-3.05-19.36.06,0,13.79-.37,13.79-.37l-.75-3.53c-.19-.9-.36-1.74-.52-2.54-1.56-7.77-2.77-13.78-13.29-13.78-1.67,0-3.63.13-5.99.41-25.76,3.03-48.28,14.1-54.37,22.6-1.56,2.17-2.13,4.25-1.72,6.17l.62,2.92,2.93-.56,37.58-8.2ZM638.51,326.88c-.85,0-1.76.02-2.76.07-23.91,1.07-45.68,12.31-52.2,20.01-1.81,2.13-2.61,4.15-2.39,6.01l.48,4.02,3.7-1.63c.1-.04,9.67-4.21,21.73-6.43,11.87-2.19,26.22-3.36,32.01-3.36.49,0,.93,0,1.3.03l12.4.57-.41-3.51c-.09-.77-.27-2.42-.27-2.42-.83-7.75-1.43-13.34-13.6-13.34Z"/>
    </g>
  </g>
</svg>