<?xml version="1.0" encoding="UTF-8"?>
<svg id="Camada_1" xmlns="http://www.w3.org/2000/svg" xmlns:xlink="http://www.w3.org/1999/xlink" viewBox="0 0 5312.68 1752.51">
  <defs>
    <style>
      .cls-1 {
        fill: #fff;
      }

      .cls-2 {
        fill: #fac61a;
      }

      .cls-3 {
        fill: #fcb11a;
      }

      .cls-4 {
        fill: url(#Gradiente_sem_nome_69);
      }
    </style>
    <linearGradient id="Gradiente_sem_nome_69" data-name="Gradiente sem nome 69" x1="873.7" y1="1627.79" x2="873.7" y2="124.72" gradientUnits="userSpaceOnUse">
      <stop offset=".05" stop-color="#043877"/>
      <stop offset="1" stop-color="#013bbf"/>
    </linearGradient>
  </defs>
  <polygon class="cls-1" points="4121.5 559.19 4435.54 559.19 4435.54 444.75 4121.5 444.75 4121.5 326.76 4443.53 326.76 4443.53 192.81 3960.04 192.81 3960.04 813.8 4449.74 813.8 4449.74 679.84 4121.5 679.84 4121.5 559.19"/>
  <path class="cls-1" d="M4903.94,813.8h201.37l-175.59-190.8c15.3-4.28,29.78-9.57,43.41-15.9,41.99-19.52,73.92-46.42,95.81-80.73,21.87-34.29,32.82-72.44,32.82-114.44,0-66.83-23.22-120.05-69.64-159.68-46.44-39.62-115.19-59.44-206.26-59.44h-287.43v620.99h161.46v-177.43h47.83l156.21,177.43ZM4699.9,338.29h119.76c40.81,0,71.11,7.69,90.93,23.07,19.81,15.38,29.72,36.97,29.72,64.76,0,17.16-4.3,32.38-12.87,45.69-8.58,13.31-21.89,24.26-39.92,32.82-18.05,8.58-40.67,12.86-67.87,12.86h-119.76v-179.2Z"/>
  <path class="cls-3" d="M2343.72,1265.35c14.34-9.29,26.48-20.12,36.38-32.49,20.1-25.13,30.16-55.74,30.16-91.82,0-52.03-19.07-93.59-57.22-124.64-38.15-31.05-96.25-46.58-174.32-46.58h-289.2v620.99h306.95c81.62,0,142.52-16.11,182.75-48.35,40.21-32.23,60.32-77.03,60.32-134.4,0-39.62-12.73-73.48-38.15-101.58-15.27-16.86-34.51-30.56-57.67-41.14ZM2050.97,1094.02h108.23c32.52,0,56.47,5.63,71.86,16.85,15.37,11.24,23.06,26.03,23.06,44.36,0,20.12-7.84,36.37-23.51,48.79-15.68,12.42-38.01,18.63-66.98,18.63h-112.67v-128.63ZM2252.35,1447.99c-17.16,12.42-44.36,18.63-81.61,18.63h-119.76v-141.94h119.76c24.24,0,44.49,3.55,60.77,10.64,16.26,7.1,28.08,16.27,35.48,27.5,7.39,11.24,11.09,22.77,11.09,34.6,0,21.29-8.58,38.15-25.73,50.57Z"/>
  <path class="cls-3" d="M2945.2,1384.11c41.99-19.52,73.92-46.42,95.81-80.73,21.87-34.29,32.83-72.44,32.83-114.44,0-66.83-23.22-120.05-69.64-159.68-46.44-39.62-115.19-59.44-206.26-59.44h-220.99c-36.69,0-66.44,29.75-66.44,66.44v554.55h161.46v-177.43h47.83l156.21,177.43h201.37l-175.59-190.8c15.3-4.28,29.78-9.56,43.41-15.9ZM2859.59,1281.65c-18.05,8.58-40.67,12.86-67.87,12.86h-119.76v-179.2h119.76c40.81,0,71.11,7.69,90.93,23.07,19.81,15.39,29.72,36.97,29.72,64.76,0,17.16-4.3,32.38-12.87,45.69-8.58,13.31-21.89,24.26-39.92,32.82Z"/>
  <path class="cls-3" d="M3361.26,969.82l-271.46,620.99h180.97l58.64-137.5h312.98l58.64,137.5h180.97l-271.46-620.99h-249.29ZM3382.38,1329.11l91.55-214.69h23.95l91.55,214.69h-207.06Z"/>
  <path class="cls-3" d="M4341.54,1279.88c-36.67-30.45-92.85-52.78-168.55-66.98-31.36-5.32-55.44-11.23-72.3-17.74-16.86-6.5-28.39-13.44-34.6-20.85-6.21-7.39-9.31-16.41-9.31-27.06,0-10.05,3.11-19.07,9.31-27.06,6.21-7.98,16.41-14.64,30.61-19.96,14.19-5.32,31.63-7.98,52.34-7.98,37.84,0,75.54,6.07,113.11,18.19,37.55,12.13,67.87,26.77,90.93,43.91h6.21v-142.83c-23.66-14.19-54.27-26.17-91.82-35.93-37.56-9.76-78.81-14.64-123.75-14.64-50.28,0-94.19,8.14-131.74,24.4-37.57,16.27-66.4,38.59-86.5,66.98-20.11,28.39-30.16,60.03-30.16,94.92,0,50.87,17.88,91.23,53.67,121.09,35.78,29.87,91.22,51.6,166.34,65.2,31.34,5.92,55.89,12.13,73.63,18.63,17.74,6.52,29.86,13.9,36.37,22.18,6.5,8.29,9.76,18.34,9.76,30.16s-3.55,21.74-10.64,31.49c-7.1,9.76-18.63,17.6-34.6,23.51-15.97,5.92-35.49,8.87-58.55,8.87-35.48,0-73.49-6.21-114-18.63-40.52-12.42-74.96-28.97-103.35-49.68h-7.1v142.83c28.39,16.56,63.57,30.16,105.57,40.81,41.99,10.65,84.57,15.97,127.75,15.97,54.4,0,100.82-8.43,139.28-25.28,38.44-16.86,67.56-40.06,87.38-69.64,19.81-29.57,29.72-62.99,29.72-100.25,0-52.63-18.34-94.17-55-124.64Z"/>
  <rect class="cls-3" x="4460.41" y="969.82" width="161.46" height="620.99"/>
  <polygon class="cls-3" points="4880.91 1435.57 4880.91 969.82 4714.13 969.82 4714.13 1590.81 5190.51 1590.81 5190.51 1435.57 4880.91 1435.57"/>
  <path class="cls-1" d="M3045.56,627.13c21.4-36.57,32.71-78.46,32.71-121.17v-.75h89.57c0-.64.03-1.27.03-1.91,0-59.13-14.35-113.25-43.02-162.34-.5-.85-1.02-1.67-1.52-2.51l-78.03,45.89c-20.96-35.63-50.91-65.47-86.62-86.28l43.82-75.18c-49.58-27.06-104.63-40.65-165.18-40.7l.14,83.39c-42.69.07-84.56,11.45-121.1,32.91l-44.42-75.62c-1.17.64-2.35,1.25-3.52,1.91-49.6,28.01-88.67,66.12-117.25,114.27l78.85,46.02c-21.31,36.51-32.57,78.33-32.57,120.93v.37h-90.44c.48,57.96,14.78,111.07,42.98,159.31,1.28,2.2,2.61,4.34,3.94,6.5l76.36-44.79c20.91,35.66,50.83,65.53,86.52,86.38l-41.87,71.66c48.59,26,102.6,39.04,162.04,39.04.36,0,.71-.01,1.07-.02l-.04-78.05c42.69-.02,84.58-11.35,121.14-32.77l41.63,71.06c1.74-.93,3.48-1.84,5.2-2.81,48.55-27.25,86.97-64.06,115.35-110.41l-75.76-44.33ZM2985.11,587.58c-14.79,25.44-35.35,45.69-61.65,60.77-26.32,15.08-54.86,22.62-85.61,22.62s-59.3-7.54-85.61-22.62c-26.33-15.08-46.88-35.33-61.65-60.77-14.79-25.42-22.18-53.52-22.18-84.28s7.39-58.11,22.18-83.83c14.78-25.73,35.18-46.13,61.21-61.21,26.02-15.08,54.69-22.62,86.05-22.62s59.29,7.54,85.61,22.62c26.31,15.08,46.86,35.35,61.65,60.77,14.78,25.43,22.18,53.53,22.18,84.28s-7.4,58.85-22.18,84.28Z"/>
  <path class="cls-1" d="M2327.31,221.2c-40.52-18.92-88.58-28.39-144.16-28.39h-293.64v620.99h161.46v-172.1h134.84c82.2,0,146.96-19.65,194.28-58.99,47.31-39.33,70.97-94.77,70.97-166.34,0-43.16-10.51-81.75-31.5-115.77-21-34-51.76-60.46-92.26-79.4ZM2262.11,484.67c-18.93,15.38-46.13,23.06-81.62,23.06h-129.52v-169.44h129.52c23.07,0,42.72,3.7,58.99,11.09,16.26,7.4,28.83,17.3,37.7,29.72,8.87,12.42,13.31,26.61,13.31,42.58,0,26.61-9.47,47.61-28.39,62.99Z"/>
  <path class="cls-1" d="M3419.79,562.74h26.45l237.03,251.06h215.57l-304.95-318.14,293.41-302.85h-207.59l-259.93,266.16V192.81h-95.01c-36.7,0-66.44,29.75-66.44,66.44v554.55h161.46v-251.06Z"/>
  <g>
    <path class="cls-4" d="M1625.23,876.26c-1.15,145.73-2.04,284.57-16.07,394.07-14.06,110.52-41.27,191.68-95.72,245.64-53.96,54.45-135.14,81.68-245.66,95.75-109.5,14.04-248.35,14.92-394.08,16.07-145.73-1.15-284.57-2.03-394.07-16.07-110.52-14.06-191.69-41.27-245.64-95.73-54.45-53.96-81.68-135.14-95.75-245.66-14.04-109.5-14.92-248.35-16.07-394.07,1.15-145.73,2.03-284.57,16.07-394.07,14.06-110.52,41.27-191.69,95.72-245.64,53.96-54.45,135.14-81.68,245.66-95.75,109.5-14.04,248.35-14.92,394.07-16.07,145.73,1.15,284.58,2.04,394.07,16.07,110.52,14.06,191.69,41.27,245.64,95.73,54.45,53.96,81.68,135.14,95.75,245.66,14.04,109.5,14.92,248.35,16.07,394.07Z"/>
    <g>
      <path class="cls-2" d="M1092.18,511.62c-12.82,14.58-41.91,22.08-61.28,23.24l-33.2-43.66c.87-.93,1.69-1.9,2.48-2.89,9.08-11.66,14.21-30.52,10.02-47.12-4.51-17.86-29.1-42.53-41.7-53.71-27.98-24.81-44.82-21.16-59.32-11.68l-15.82-14.9c-11.31-14.31-33.06-14.18-44.22.23l-47.05,60.82c-8.12-18.36-26.61-31.16-47.57-31.16-1.05,0-2.13.04-3.2.1-13.87.85-26.57,7.05-35.77,17.45-9.2,10.4-13.79,23.75-12.94,37.63.19,2.92.62,5.83,1.28,8.68-2.25,1.76-4.36,3.74-6.28,5.91-8.23,9.3-12.34,21.27-11.6,33.68,1.14,18.36,12.86,33.74,28.98,40.27l-33.02,42.67c-2.32.31-4.61.48-6.93.48-17.86,0-40.87-4.73-53.17-15.26,10.63-19.76,11.29-44.2,1.67-64.19-2.83-5.87-6.45-11.23-10.71-16l216.5-279.78c20.76-26.83,61.17-27.04,82.22-.43l170.08,215.11c-6.62,8.95-11.14,19.52-12.86,31.05-3.54,23.61,5.42,47.74,23.4,63.47Z"/>
      <path class="cls-2" d="M462.21,896.05l66.07,83.58c-4.3-1.08-8.72-1.63-13.17-1.65h-.27c-22.68,0-43.6,10.38-57.33,28.39-9.61,11.64-14.89,26.57-14.86,41.93-.04.64-.06,1.3-.06,1.96,0,.99.02,1.98.06,2.98l-111.95-141.6c-14.89-18.81-15.01-45.34-.33-64.32l221.27-285.98,9.65,20.03,38.91,101.49-138.18,178.6c-7.9,10.19-7.81,24.46.19,34.59Z"/>
      <path class="cls-2" d="M1142.99,1259.37l-224.91,290.71c-20.76,26.83-61.19,27.04-82.22.43l-338.74-428.4c6.43,2.46,13.52,4.51,21.34,6.2,2.96.62,6.1,1.22,8.89,1.65,22.14,5.48,48.17,8.25,77.4,8.25,14.97,0,30.68-.7,47.28-2.11l202.02,255.51c11.31,14.31,33.06,14.18,44.22-.23l129.09-166.86,8.62,3.08,10.01,3.8,2.07.56.45.12c6.12,2.13,12.4,4.26,18.73,6.31l-.12.29,15.77,4.65,8.39,2.63,1.86.43.43.1c7.15,2.07,14.37,4.07,21.5,5.97l-.19.41,19.25,4.45,5.66,1.41,1.94.35c.43.1.85.19,1.24.27Z"/>
      <path class="cls-2" d="M1417.04,905.19l-211.47,273.29c-.76-16.91-4.47-36.99-12.57-60.72l-.17-.48c-.12-.31-11.56-31.76-15.48-65.52l.17-.45c1.78-4.69,3.6-9.55,3.1-15.63-.04-.41-.06-.83-.06-1.26l-.02-.31c-.06-1.76-.14-4.09-.6-6.76l105.44-136.3c7.9-10.19,7.81-24.46-.19-34.59l-153.58-194.23,3.25-23.24.35-.04,18.28-130.97,263.22,332.89c14.89,18.81,15.03,45.34.35,64.32Z"/>
    </g>
    <g>
      <path class="cls-1" d="M586.46,570.95l-21.44-44.56-18.77-38.69c4.33-1.44,8.86-2.16,13.49-2.16,16.69,0,32.1,9.61,39.26,24.49,7.71,15.99,4.62,35.52-7.68,48.6l-2.53,2.7,1.47,3.4c12.83,29.64,53.69,40.15,84.77,40.15,45.24,0,86.44-38.39,86.44-80.54,0-1.81-.62-15.42-.95-22.31l-.07-1.46-1.59-19.28-9.02,18.54c-3.05,6.27-9.25,10.42-16.19,10.85-.41.03-.81.04-1.21.04-10.18,0-18.64-7.97-19.26-18.14-.32-5.15,1.39-10.12,4.81-13.99,3.42-3.87,8.14-6.17,13.29-6.49.38-.02.76-.03,1.14-.03.88,0,1.75.06,2.6.17l12.29-1.72-8.08-8.29c-5.58-4.38-9.03-10.92-9.46-17.94-.41-6.59,1.79-12.95,6.17-17.91,4.39-4.96,10.43-7.92,17.02-8.32.51-.03,1.03-.05,1.54-.05,13.05,0,23.89,10.21,24.69,23.24.27,4.52-.71,9.04-2.85,13.07l-6.61,12.45,13.37-4.47c1.66-.56,3.33-.89,4.96-.99.41-.03.81-.04,1.21-.04,10.18,0,18.65,7.97,19.27,18.14.65,10.63-7.47,19.82-18.11,20.47-.4.03-.81.04-1.2.04-5.25,0-10.35-2.2-14-6.04l-13.81-14.54,4.22,19.6c13.69,63.57,52.55,72.13,88.75,72.13,19.38,0,38.95-8.58,53.69-23.54,17.61-17.88,27.08-43.22,26.66-71.34l-.19-12.56-9.25,8.5c-4.19,3.85-9.61,5.97-15.26,5.97-7.92,0-15.13-4.06-19.29-10.87l-.28-.43c-2.66-3.23-3.59-7.65-2.94-13.37l.2-1.64c.4-2.15,1-4.06,1.86-5.9,4.65-10.63,15.73-22.63,26.44-34.23,6.64-7.2,12.94-14.03,17.88-20.59,6.18,8.01,14.22,15.88,22,23.52,11.2,10.98,22.76,22.32,26.75,32.28.36.86.63,1.71.87,2.57l.2.62.23,1.22c.77,3.85.66,7.19-.33,9.92-2.82,10-11.79,16.89-21.87,16.89-5.86,0-11.43-2.25-15.68-6.34l-11.05-10.65,1.55,15.27c5.83,57.66,49.02,84.91,86.68,85.84.78.02,1.59.03,2.42.03,34.28,0,91.57-15.65,99.34-57.66l.82-4.43-4.14-1.77c-18.21-7.78-28.9-26.8-26.01-46.25,3.15-21.06,21.61-36.95,42.94-36.95.23,0,.47,0,.71,0l-6.34,42.51-7.6,51.95-14.56,106.75-.69,2.61-3.27,23.29c-2.78-.02-5.55-.02-8.33-.02-153.53,0-303.02,23.74-456.94,72.58l-55.15-143.95Z"/>
      <path class="cls-1" d="M674.45,1099.11c75.35-54.23,100.86-153.31,108.43-194.36,6.55-35.51,11.89-67.54,10.89-99.87-.1-3.03-.18-6.14-.26-9.31-.7-26.26-1.48-55.91-9.33-80.6,20.97-4.3,84.71-16.45,103.84-18.82.79,20.77,2.22,105.28-21.52,191.59-32.88,119.59-97.47,190.65-192.05,211.36Z"/>
      <path class="cls-1" d="M558.15,1105.31c-11.38,0-22.81-1.22-33.97-3.61-12.7-2.73-22.63-6.52-30.37-11.59-14.85-8.08-24-23.32-24-39.86l.06-1.04c-.11-9.74,3.01-18.83,8.81-25.72,8.76-11.65,21.93-18.28,36.17-18.28,13.18.07,25.13,8.9,29.05,21.49,1.4,4.48,1.8,8.55,1.2,12.11-.91,5.4-4.46,10.03-10.55,13.78-4.36,2.69-6.17,8.1-4.19,12.57,1.58,3.59,5.14,5.92,9.06,5.92,1.8,0,3.56-.49,5.11-1.42,11.4-6.9,18.15-16.19,20.07-27.59.95-5.7.62-11.82-1-18.22,23.13-19.71,75.88-84.1,89.35-267.29,19-9.94,50.16-20.58,90.28-30.82,7.04,18.07,10.97,44.31,12.31,63.19,4.23,59.53-6.75,108.05-25.83,167.03-6.49,20.05-14.11,38.92-22.67,56.1-28.2,56.65-86.64,93.26-148.87,93.26Z"/>
      <path class="cls-1" d="M1070.55,1025.03c-12.64,0-25.45-4.65-35.14-12.77-10.53-8.81-17.72-23.95-11.09-35.84l.44-.76c4.02-6.59,10.44-10.71,16.75-10.71,7.96,0,15.2,4.69,18.44,11.96,1.46,3.28,1.72,7.97-2.36,10.43-.34.21-.69.39-1.04.58-.84.45-1.6.87-2.32,1.35-2.1,1.38-3.61,3.08-4.48,5.06-1.72,3.87-1.3,8.58,1.19,13.26,2.09,3.94,5.35,7.19,8.71,8.68,1.9.84,3.97,1.27,6.14,1.27,3.19,0,6.6-.96,9.59-2.7,4.11-2.39,7.11-5.7,9.8-8.95,12.86-2.21,29.12-15.6,35.33-26.42,2.2-3.83,3.35-7.37,4.36-10.5,1.58-4.87,2.62-8.08,6.93-11.05,2.78-1.92,5.96-2.94,9.18-2.94,4.56,0,8.78,2,11.89,5.63,4.85,5.68,6.76,11.82,5.69,18.27-2.09,12.62-14.73,24.16-24.92,30.2-14.72,8.72-31.85,14.02-49.54,15.32-3.56.26-8.26.57-13,.62h-.55Z"/>
      <path class="cls-1" d="M1159.76,1235.19c-1.38-.29-3.37-.71-5.89-1.26,6.62-16.45,17.62-54.29-.97-92.46-2.11-4.34-6.6-7.15-11.44-7.15-1.93,0-3.8.43-5.55,1.28-3.05,1.49-5.35,4.07-6.46,7.28-1.11,3.21-.9,6.66.58,9.71,15.46,31.75,3.76,64.14-1.26,75.32-8.32-2.14-16.79-4.45-25.24-6.88,8.59-23.83,14.73-59.5-2.49-97.48-2.06-4.54-6.61-7.47-11.58-7.47-1.82,0-3.59.38-5.25,1.14-3.09,1.4-5.45,3.92-6.64,7.1-1.2,3.17-1.08,6.62.32,9.72,13.77,30.37,8.41,59.73,1.12,79.54-7.45-2.38-14.83-4.86-22-7.37,8.82-28.9,6.76-58.79-6.28-91.34-1.94-4.85-6.57-7.99-11.8-7.99-1.62,0-3.22.31-4.73.92-6.5,2.6-9.67,10.02-7.07,16.52,10.65,26.58,12.63,50.51,6.06,73.07-70.53-27.45-120.24-59.46-147.76-95.15-25.86-33.53-31.15-70.2-15.73-109.01,28.71-72.24,61.92-182.73,57.11-298.86,0,0-.12-2.86-.15-3.81,13.98-4.76,86.45-14.16,137.04-14.16,13.91,0,24.24.74,30.7,2.2,30.86,6.98,28.51,79.69,28.4,82.78-.51,3.52-4.78,36.61,9.61,53.44,12.91,15.1,19.53,26.68,19.59,26.8,22.76,46.71,33.04,82.96,29.83,86.39-2.58,1.37-5.68,2.08-9.14,2.08-9.22,0-18.01-5.01-18.1-5.06l-2.38-1.39-2.56,1.03c-1.17.48-2.39,1-3.65,1.54-5.48,2.35-11.61,4.98-16.8,4.98-1.75,0-3.24-.3-4.58-.9-2.99-1.35-5.3-4.01-5.62-6.44-.2-1.5.45-2.84,1.99-4.1,1.1-.91,1.98-1.97,2.6-3.16,2.95-5.52,3.5-10.02,1.63-13.35-.65-1.15-2.62-3.87-7.01-4.11h-.46c-5.88-.01-13.32,5.71-17.74,13.59-5,8.93-4.95,18.43.14,26.73,6.91,11.27-3.72,25.8-7.19,28.69-1.44,1.2-2.83,2.22-4.18,3.05-5.71-20.56-28.19-31.62-47.25-31.62-14.9,0-29.45,8.69-37.97,22.68-8.74,14.37-8.78,32.39-.11,48.22.23.43.51.85.79,1.27l.2.31c3.71,7.83,9.63,15.45,16.54,21.22,13.68,11.45,31.76,18.01,49.59,18.01h.77c5.4-.06,10.55-.4,14.43-.69,21.14-1.55,41.67-7.91,59.37-18.4,1.29-.77,3.25-1.99,5.58-3.62.5.34.96.74,1.36,1.18,1,1.12,1.14,2.07,1.26,5.33.04.91.07,1.84.15,2.8-.09.23-1.05,2.8-1.42,3.77-1.53,4.09-2.44,6.66-2.19,9.13,3.87,39.07,16.88,74.46,17.44,75.95,26.35,77.14-.28,103.06-7.55,108.43ZM1037.76,814.89c-.54,1.44-.99,2.91-1.33,4.38-2.13,9.26-.32,18.68,5.24,27.22,7.15,10.99,20.74,17.82,35.48,17.82,1.85,0,3.71-.11,5.52-.32l6.51-.76-1.63-6.34-3.27-11.54c-3.37-11.89-5.29-24.11-5.73-36.35.11,0,25.9-.69,25.9-.69l-1.41-6.62c-.36-1.68-.68-3.27-.98-4.78-2.94-14.59-5.21-25.88-24.97-25.88-3.14,0-6.82.25-11.25.78-48.39,5.7-90.69,26.47-102.12,42.46-2.92,4.08-4.01,7.98-3.23,11.6l1.17,5.48,5.51-1.06,70.59-15.4ZM1069.18,723.07c-1.59,0-3.31.04-5.18.13-44.9,2.02-85.79,23.12-98.05,37.58-3.39,4-4.9,7.8-4.48,11.29l.9,7.54,6.95-3.06c.18-.08,18.16-7.9,40.81-12.08,22.29-4.12,49.24-6.31,60.12-6.31.92,0,1.74.02,2.44.05l23.3,1.06-.77-6.59c-.17-1.44-.51-4.55-.51-4.55-1.56-14.55-2.68-25.06-25.54-25.06Z"/>
    </g>
    <g>
      <path class="cls-1" d="M586.46,570.95l-21.44-44.56-18.77-38.69c4.33-1.44,8.86-2.16,13.49-2.16,16.69,0,32.1,9.61,39.26,24.49,7.71,15.99,4.62,35.52-7.68,48.6l-2.53,2.7,1.47,3.4c12.83,29.64,53.69,40.15,84.77,40.15,45.24,0,86.44-38.39,86.44-80.54,0-1.81-.62-15.42-.95-22.31l-.07-1.46-1.59-19.28-9.02,18.54c-3.05,6.27-9.25,10.42-16.19,10.85-.41.03-.81.04-1.21.04-10.18,0-18.64-7.97-19.26-18.14-.32-5.15,1.39-10.12,4.81-13.99,3.42-3.87,8.14-6.17,13.29-6.49.38-.02.76-.03,1.14-.03.88,0,1.75.06,2.6.17l12.29-1.72-8.08-8.29c-5.58-4.38-9.03-10.92-9.46-17.94-.41-6.59,1.79-12.95,6.17-17.91,4.39-4.96,10.43-7.92,17.02-8.32.51-.03,1.03-.05,1.54-.05,13.05,0,23.89,10.21,24.69,23.24.27,4.52-.71,9.04-2.85,13.07l-6.61,12.45,13.37-4.47c1.66-.56,3.33-.89,4.96-.99.41-.03.81-.04,1.21-.04,10.18,0,18.65,7.97,19.27,18.14.65,10.63-7.47,19.82-18.11,20.47-.4.03-.81.04-1.2.04-5.25,0-10.35-2.2-14-6.04l-13.81-14.54,4.22,19.6c13.69,63.57,52.55,72.13,88.75,72.13,19.38,0,38.95-8.58,53.69-23.54,17.61-17.88,27.08-43.22,26.66-71.34l-.19-12.56-9.25,8.5c-4.19,3.85-9.61,5.97-15.26,5.97-7.92,0-15.13-4.06-19.29-10.87l-.28-.43c-2.66-3.23-3.59-7.65-2.94-13.37l.2-1.64c.4-2.15,1-4.06,1.86-5.9,4.65-10.63,15.73-22.63,26.44-34.23,6.64-7.2,12.94-14.03,17.88-20.59,6.18,8.01,14.22,15.88,22,23.52,11.2,10.98,22.76,22.32,26.75,32.28.36.86.63,1.71.87,2.57l.2.62.23,1.22c.77,3.85.66,7.19-.33,9.92-2.82,10-11.79,16.89-21.87,16.89-5.86,0-11.43-2.25-15.68-6.34l-11.05-10.65,1.55,15.27c5.83,57.66,49.02,84.91,86.68,85.84.78.02,1.59.03,2.42.03,34.28,0,87.21-21.32,94.98-63.32l1.04-.54c-18.21-7.78-28.9-26.8-26.01-46.25,3.15-21.06,21.61-36.95,42.94-36.95.23,0,.47,0,.71,0l-6.34,42.51-7.6,51.95-14.56,106.75-.69,2.61-3.27,23.29c-2.78-.02-5.55-.02-8.33-.02-153.53,0-303.02,23.74-456.94,72.58l-55.15-143.95Z"/>
      <path class="cls-1" d="M674.45,1099.11c75.35-54.23,100.86-153.31,108.43-194.36,6.55-35.51,11.89-67.54,10.89-99.87-.1-3.03-.18-6.14-.26-9.31-.7-26.26-1.48-55.91-9.33-80.6,20.97-4.3,84.71-16.45,103.84-18.82.79,20.77,2.22,105.28-21.52,191.59-32.88,119.59-97.47,190.65-192.05,211.36Z"/>
      <path class="cls-1" d="M558.15,1105.31c-11.38,0-22.81-1.22-33.97-3.61-12.7-2.73-22.63-6.52-30.37-11.59-14.85-8.08-24-23.32-24-39.86l.06-1.04c-.11-9.74,3.01-18.83,8.81-25.72,8.76-11.65,21.93-18.28,36.17-18.28,13.18.07,25.13,8.9,29.05,21.49,1.4,4.48,1.8,8.55,1.2,12.11-.91,5.4-4.46,10.03-10.55,13.78-4.36,2.69-6.17,8.1-4.19,12.57,1.58,3.59,5.14,5.92,9.06,5.92,1.8,0,3.56-.49,5.11-1.42,11.4-6.9,18.15-16.19,20.07-27.59.95-5.7.62-11.82-1-18.22,23.13-19.71,75.88-84.1,89.35-267.29,19-9.94,50.16-20.58,90.28-30.82,7.04,18.07,10.97,44.31,12.31,63.19,4.23,59.53-6.75,108.05-25.83,167.03-6.49,20.05-14.11,38.92-22.67,56.1-28.2,56.65-86.64,93.26-148.87,93.26Z"/>
      <path class="cls-1" d="M1070.55,1025.03c-12.64,0-25.45-4.65-35.14-12.77-10.53-8.81-17.72-23.95-11.09-35.84l.44-.76c4.02-6.59,10.44-10.71,16.75-10.71,7.96,0,15.2,4.69,18.44,11.96,1.46,3.28,1.72,7.97-2.36,10.43-.34.21-.69.39-1.04.58-.84.45-1.6.87-2.32,1.35-2.1,1.38-3.61,3.08-4.48,5.06-1.72,3.87-1.3,8.58,1.19,13.26,2.09,3.94,5.35,7.19,8.71,8.68,1.9.84,3.97,1.27,6.14,1.27,3.19,0,6.6-.96,9.59-2.7,4.11-2.39,7.11-5.7,9.8-8.95,12.86-2.21,29.12-15.6,35.33-26.42,2.2-3.83,3.35-7.37,4.36-10.5,1.58-4.87,2.62-8.08,6.93-11.05,2.78-1.92,5.96-2.94,9.18-2.94,4.56,0,8.78,2,11.89,5.63,4.85,5.68,6.76,11.82,5.69,18.27-2.09,12.62-14.73,24.16-24.92,30.2-14.72,8.72-31.85,14.02-49.54,15.32-3.56.26-8.26.57-13,.62h-.55Z"/>
      <path class="cls-1" d="M1159.76,1235.19c-1.38-.29-3.37-.71-5.89-1.26,6.62-16.45,17.62-54.29-.97-92.46-2.11-4.34-6.6-7.15-11.44-7.15-1.93,0-3.8.43-5.55,1.28-3.05,1.49-5.35,4.07-6.46,7.28-1.11,3.21-.9,6.66.58,9.71,15.46,31.75,3.76,64.14-1.26,75.32-8.32-2.14-16.79-4.45-25.24-6.88,8.59-23.83,14.73-59.5-2.49-97.48-2.06-4.54-6.61-7.47-11.58-7.47-1.82,0-3.59.38-5.25,1.14-3.09,1.4-5.45,3.92-6.64,7.1-1.2,3.17-1.08,6.62.32,9.72,13.77,30.37,8.41,59.73,1.12,79.54-7.45-2.38-14.83-4.86-22-7.37,8.82-28.9,6.76-58.79-6.28-91.34-1.94-4.85-6.57-7.99-11.8-7.99-1.62,0-3.22.31-4.73.92-6.5,2.6-9.67,10.02-7.07,16.52,10.65,26.58,12.63,50.51,6.06,73.07-70.53-27.45-120.24-59.46-147.76-95.15-25.86-33.53-31.15-70.2-15.73-109.01,28.71-72.24,61.92-182.73,57.11-298.86,0,0-.12-2.86-.15-3.81,13.98-4.76,86.45-14.16,137.04-14.16,13.91,0,24.24.74,30.7,2.2,30.86,6.98,28.51,79.69,28.4,82.78-.51,3.52-4.78,36.61,9.61,53.44,12.91,15.1,19.53,26.68,19.59,26.8,22.76,46.71,33.04,82.96,29.83,86.39-2.58,1.37-5.68,2.08-9.14,2.08-9.22,0-18.01-5.01-18.1-5.06l-2.38-1.39-2.56,1.03c-1.17.48-2.39,1-3.65,1.54-5.48,2.35-11.61,4.98-16.8,4.98-1.75,0-3.24-.3-4.58-.9-2.99-1.35-5.3-4.01-5.62-6.44-.2-1.5.45-2.84,1.99-4.1,1.1-.91,1.98-1.97,2.6-3.16,2.95-5.52,3.5-10.02,1.63-13.35-.65-1.15-2.62-3.87-7.01-4.11h-.46c-5.88-.01-13.32,5.71-17.74,13.59-5,8.93-4.95,18.43.14,26.73,6.91,11.27-3.72,25.8-7.19,28.69-1.44,1.2-2.83,2.22-4.18,3.05-5.71-20.56-28.19-31.62-47.25-31.62-14.9,0-29.45,8.69-37.97,22.68-8.74,14.37-8.78,32.39-.11,48.22.23.43.51.85.79,1.27l.2.31c3.71,7.83,9.63,15.45,16.54,21.22,13.68,11.45,31.76,18.01,49.59,18.01h.77c5.4-.06,10.55-.4,14.43-.69,21.14-1.55,41.67-7.91,59.37-18.4,1.29-.77,3.25-1.99,5.58-3.62.5.34.96.74,1.36,1.18,1,1.12,1.14,2.07,1.26,5.33.04.91.07,1.84.15,2.8-.09.23-1.05,2.8-1.42,3.77-1.53,4.09-2.44,6.66-2.19,9.13,3.87,39.07,16.88,74.46,17.44,75.95,26.35,77.14-.28,103.06-7.55,108.43ZM1037.76,814.89c-.54,1.44-.99,2.91-1.33,4.38-2.13,9.26-.32,18.68,5.24,27.22,7.15,10.99,20.74,17.82,35.48,17.82,1.85,0,3.71-.11,5.52-.32l6.51-.76-1.63-6.34-3.27-11.54c-3.37-11.89-5.29-24.11-5.73-36.35.11,0,25.9-.69,25.9-.69l-1.41-6.62c-.36-1.68-.68-3.27-.98-4.78-2.94-14.59-5.21-25.88-24.97-25.88-3.14,0-6.82.25-11.25.78-48.39,5.7-90.69,26.47-102.12,42.46-2.92,4.08-4.01,7.98-3.23,11.6l1.17,5.48,5.51-1.06,70.59-15.4ZM1069.18,723.07c-1.59,0-3.31.04-5.18.13-44.9,2.02-85.79,23.12-98.05,37.58-3.39,4-4.9,7.8-4.48,11.29l.9,7.54,6.95-3.06c.18-.08,18.16-7.9,40.81-12.08,22.29-4.12,49.24-6.31,60.12-6.31.92,0,1.74.02,2.44.05l23.3,1.06-.77-6.59c-.17-1.44-.51-4.55-.51-4.55-1.56-14.55-2.68-25.06-25.54-25.06Z"/>
    </g>
  </g>
</svg>